<svg width="87" height="87" viewBox="0 0 87 87" fill="none" xmlns="http://www.w3.org/2000/svg">
<path d="M26.1935 8.41935C26.1935 3.76957 29.9631 0 34.6129 0H52.3871C57.0369 0 60.8064 3.76957 60.8064 8.41935V23.8548C60.8064 25.1464 61.8536 26.1935 63.1452 26.1935H78.5806C83.2304 26.1935 87 29.9631 87 34.6129V52.3871C87 57.0369 83.2304 60.8064 78.5806 60.8064H67.8536C66.3701 60.8064 64.9473 60.2171 63.8983 59.1681C60.0794 55.3492 59.977 49.26 60.3061 43.8693C60.3277 43.5151 60.3387 43.1581 60.3387 42.7984C60.3387 33.3695 52.7998 25.7258 43.5 25.7258C34.2002 25.7258 26.6613 33.3695 26.6613 42.7984C26.6613 52.2272 34.2002 59.871 43.5 59.871C44.0983 59.871 44.6893 59.8393 45.2715 59.7776C50.212 59.2539 55.8086 59.3138 59.3216 62.8268C60.2723 63.7776 60.8064 65.067 60.8064 66.4115V78.5806C60.8064 83.2304 57.0369 87 52.3871 87H34.6129C29.9631 87 26.1935 83.2304 26.1935 78.5806V63.1452C26.1935 61.8536 25.1464 60.8064 23.8548 60.8064H8.41935C3.76957 60.8064 0 57.0369 0 52.3871V34.6129C0 29.9631 3.76957 26.1935 8.41935 26.1935H23.8548C25.1464 26.1935 26.1935 25.1464 26.1935 23.8548V8.41935Z" fill="white"/>
</svg>
