<svg width="33" height="33" viewBox="0 0 33 33" fill="none" xmlns="http://www.w3.org/2000/svg">
<circle cx="16.5" cy="16.5" r="16.5" fill="#067F81" fill-opacity="0.08"/>
<path d="M14.8372 7.16663C14.8899 7.11381 14.9525 7.0719 15.0214 7.04331C15.0903 7.01472 15.1642 7 15.2388 7C15.3134 7 15.3873 7.01472 15.4562 7.04331C15.5251 7.0719 15.5877 7.11381 15.6404 7.16663C16.2427 7.77009 17.6867 9.50788 18.9821 11.5939C20.2639 13.6584 21.4776 16.1879 21.4776 18.3443C21.4776 20.436 20.8787 22.1466 19.7648 23.3399C18.6497 24.5366 17.0719 25.1503 15.2388 25.1503C13.4069 25.1503 11.829 24.5366 10.7128 23.3399C9.59779 22.1466 9 20.436 9 18.3443C9 16.1868 10.2137 13.6595 11.4955 11.5939C12.7909 9.50674 14.2349 7.77122 14.8372 7.16663Z" fill="#067F81"/>
<circle cx="21.6189" cy="16.783" r="3.46268" fill="#DCEDED" stroke="#DCEDED" stroke-width="3"/>
<circle cx="21.619" cy="16.785" r="3.25373" fill="#DCEDED" stroke="#067F81" stroke-width="2"/>
<path d="M28.3671 24.2012H24.3715V23.3604C24.6768 23.1393 24.9822 22.9046 25.2875 22.6562C25.5951 22.4079 25.8412 22.1937 26.0258 22.0137C26.3015 21.7471 26.4975 21.5146 26.6137 21.3164C26.7299 21.1182 26.788 20.9222 26.788 20.7285C26.788 20.4961 26.7128 20.3172 26.5624 20.1919C26.4143 20.0643 26.2001 20.0005 25.9198 20.0005C25.7102 20.0005 25.4892 20.0438 25.2568 20.1304C25.0266 20.217 24.8124 20.3275 24.6142 20.4619H24.5048V19.3306C24.6666 19.2599 24.9047 19.1893 25.2192 19.1187C25.5359 19.048 25.8526 19.0127 26.1694 19.0127C26.8074 19.0127 27.2939 19.1471 27.6288 19.416C27.9638 19.6826 28.1313 20.0609 28.1313 20.5508C28.1313 20.8721 28.0504 21.1774 27.8886 21.4668C27.7291 21.7562 27.4841 22.0547 27.1537 22.3623C26.9464 22.5537 26.7379 22.7303 26.5282 22.8921C26.3186 23.0516 26.1694 23.1632 26.0805 23.2271H28.3671V24.2012Z" fill="#067F81"/>
</svg>
