<svg width="24" height="24" viewBox="0 0 24 24" fill="none" xmlns="http://www.w3.org/2000/svg">
<path fill-rule="evenodd" clip-rule="evenodd" d="M15.7935 0.999512C16.2075 0.999512 16.5435 1.33551 16.5435 1.74951L16.544 2.59732C18.0041 2.69743 19.2167 3.19756 20.075 4.05761C21.012 4.99861 21.505 6.35161 21.5 7.97461V17.0976C21.5 20.4296 19.384 22.4996 15.979 22.4996H7.521C4.116 22.4996 2 20.4006 2 17.0216V7.97261C2 4.8298 3.88706 2.81245 6.96469 2.59767L6.9653 1.74951C6.9653 1.33551 7.3013 0.999512 7.7153 0.999512C8.1293 0.999512 8.4653 1.33551 8.4653 1.74951L8.465 2.57851H15.043L15.0435 1.74951C15.0435 1.33551 15.3795 0.999512 15.7935 0.999512ZM20 9.90351H3.5V17.0216C3.5 19.5876 4.928 20.9996 7.521 20.9996H15.979C18.572 20.9996 20 19.6136 20 17.0976L20 9.90351ZM16.2012 16.1958C16.6152 16.1958 16.9512 16.5318 16.9512 16.9458C16.9512 17.3598 16.6152 17.6958 16.2012 17.6958C15.7872 17.6958 15.4472 17.3598 15.4472 16.9458C15.4472 16.5318 15.7782 16.1958 16.1922 16.1958H16.2012ZM11.7637 16.1958C12.1777 16.1958 12.5137 16.5318 12.5137 16.9458C12.5137 17.3598 12.1777 17.6958 11.7637 17.6958C11.3497 17.6958 11.0097 17.3598 11.0097 16.9458C11.0097 16.5318 11.3407 16.1958 11.7547 16.1958H11.7637ZM7.3169 16.1958C7.7309 16.1958 8.0669 16.5318 8.0669 16.9458C8.0669 17.3598 7.7309 17.6958 7.3169 17.6958C6.9029 17.6958 6.5619 17.3598 6.5619 16.9458C6.5619 16.5318 6.8939 16.1958 7.3079 16.1958H7.3169ZM16.2012 12.3091C16.6152 12.3091 16.9512 12.6451 16.9512 13.0591C16.9512 13.4731 16.6152 13.8091 16.2012 13.8091C15.7872 13.8091 15.4472 13.4731 15.4472 13.0591C15.4472 12.6451 15.7782 12.3091 16.1922 12.3091H16.2012ZM11.7637 12.3091C12.1777 12.3091 12.5137 12.6451 12.5137 13.0591C12.5137 13.4731 12.1777 13.8091 11.7637 13.8091C11.3497 13.8091 11.0097 13.4731 11.0097 13.0591C11.0097 12.6451 11.3407 12.3091 11.7547 12.3091H11.7637ZM7.3169 12.3091C7.7309 12.3091 8.0669 12.6451 8.0669 13.0591C8.0669 13.4731 7.7309 13.8091 7.3169 13.8091C6.9029 13.8091 6.5619 13.4731 6.5619 13.0591C6.5619 12.6451 6.8939 12.3091 7.3079 12.3091H7.3169ZM15.043 4.07851H8.465L8.4653 5.04051C8.4653 5.45451 8.1293 5.79051 7.7153 5.79051C7.3013 5.79051 6.9653 5.45451 6.9653 5.04051L6.96477 4.10121C4.72454 4.2894 3.5 5.64737 3.5 7.97261V8.40351H20L20 7.97261C20.004 6.73761 19.672 5.77761 19.013 5.11761C18.4345 4.53742 17.5889 4.19091 16.5444 4.10169L16.5435 5.04051C16.5435 5.45451 16.2075 5.79051 15.7935 5.79051C15.3795 5.79051 15.0435 5.45451 15.0435 5.04051L15.043 4.07851Z" fill="white"/>
</svg>
