<svg width="19" height="27" viewBox="0 0 19 27" fill="none" xmlns="http://www.w3.org/2000/svg">
<path d="M9.5 27C14.6781 27 18.875 23.625 18.875 17.7188C18.875 15.1875 18.0938 10.9688 14.9688 7.59375C15.3594 10.125 13.0156 10.9688 13.0156 10.9688C14.1875 6.75 11.0625 0.84375 6.375 0C6.93281 3.375 7.15625 6.75 3.25 10.125C1.29688 11.8125 0.125 14.7302 0.125 17.7188C0.125 23.625 4.32188 27 9.5 27ZM9.5 25.3125C6.91094 25.3125 4.8125 23.625 4.8125 20.6719C4.8125 19.4062 5.20312 17.2969 6.76562 15.6094C6.57031 16.875 7.9375 17.7188 7.9375 17.7188C7.35156 15.6094 8.71875 12.2344 11.0625 11.8125C10.7828 13.5 10.6719 15.1875 12.625 16.875C13.6016 17.7188 14.1875 19.1768 14.1875 20.6719C14.1875 23.625 12.0891 25.3125 9.5 25.3125Z" fill="#067F81"/>
</svg>
