<svg width="33" height="33" viewBox="0 0 33 33" fill="none" xmlns="http://www.w3.org/2000/svg">
<circle cx="16.5" cy="16.5" r="16.5" fill="#067F81" fill-opacity="0.08"/>
<path fill-rule="evenodd" clip-rule="evenodd" d="M24.4591 17.837C27.1977 11.4125 19.9813 7.85709 16.5331 11.4017C13.0849 7.85717 5.86881 11.4129 8.60689 17.837H10.9941L12.7717 15.5023C12.8812 15.3584 13.0599 15.2849 13.2389 15.31C13.418 15.3351 13.5695 15.4549 13.6353 15.6234L14.9949 19.1065L16.5556 14.8475C16.6293 14.6464 16.823 14.5146 17.0372 14.5197C17.2513 14.5249 17.4384 14.6659 17.5023 14.8703L19.1041 19.9924L20.664 18.0262C20.7588 17.9067 20.9031 17.837 21.0557 17.837H24.4591ZM23.9632 18.837H21.2973L19.3005 21.3538C19.1854 21.4989 18.9995 21.5685 18.8174 21.5347C18.6353 21.5008 18.4869 21.3691 18.4316 21.1923L16.9876 16.575L15.4791 20.6914C15.4076 20.8866 15.2227 21.0172 15.0149 21.0193C14.807 21.0215 14.6195 20.8948 14.5439 20.7012L13.0277 16.8169L11.6397 18.6398C11.5451 18.764 11.398 18.837 11.2419 18.837H9.10265C10.3215 20.9965 12.6455 23.4313 16.5331 26C20.4204 23.4312 22.7443 20.9964 23.9632 18.837Z" fill="#067F81"/>
</svg>
