<svg width="33" height="33" viewBox="0 0 33 33" fill="none" xmlns="http://www.w3.org/2000/svg">
<path d="M9.52329 14.0759C10.1294 14.0759 10.6208 13.5845 10.6208 12.9784C10.6208 12.3722 10.1294 11.8809 9.52329 11.8809C8.91715 11.8809 8.42578 12.3722 8.42578 12.9784C8.42578 13.5845 8.91715 14.0759 9.52329 14.0759Z" fill="#067F81"/>
<path d="M18.9367 10.0487C20.1606 10.0487 21.1527 9.05656 21.1527 7.8327C21.1527 6.60884 20.1606 5.6167 18.9367 5.6167C17.7128 5.6167 16.7207 6.60884 16.7207 7.8327C16.7207 9.05656 17.7128 10.0487 18.9367 10.0487Z" fill="#067F81"/>
<path d="M14.3668 9.921C15.1302 9.921 15.7491 9.30209 15.7491 8.53863C15.7491 7.77516 15.1302 7.15625 14.3668 7.15625C13.6033 7.15625 12.9844 7.77516 12.9844 8.53863C12.9844 9.30209 13.6033 9.921 14.3668 9.921Z" fill="#067F81"/>
<path d="M20.7336 22.6219C20.393 22.0752 20.2018 21.4486 20.1792 20.8049C20.1566 20.1612 20.3033 19.5228 20.6047 18.9535L20.5961 18.9406C21.1636 18.091 21.4658 17.0919 21.4646 16.0702C21.4646 13.2074 19.1437 10.8867 16.2811 10.8867C13.4183 10.8867 11.0977 13.2074 11.0977 16.0702C11.0977 16.6293 11.1887 17.1667 11.3527 17.6715C11.4613 18.1179 11.6375 18.545 11.8754 18.9381L11.8512 18.952L15.6057 25.4554C16.0021 26.6282 17.1089 27.4735 18.4152 27.4735C20.0542 27.4735 21.3835 26.1449 21.3835 24.5057C21.3835 23.7947 21.1327 23.1423 20.7154 22.6312L20.7336 22.6219V22.6219Z" fill="#067F81"/>
<path d="M11.4471 11.7517C12.0533 11.7517 12.5446 11.2603 12.5446 10.6542C12.5446 10.048 12.0533 9.55664 11.4471 9.55664C10.841 9.55664 10.3496 10.048 10.3496 10.6542C10.3496 11.2603 10.841 11.7517 11.4471 11.7517Z" fill="#067F81"/>
<circle cx="16.5" cy="16.5" r="16.5" fill="#067F81" fill-opacity="0.08"/>
</svg>
