<svg width="21" height="16" viewBox="0 0 21 16" fill="none" xmlns="http://www.w3.org/2000/svg">
<path d="M2.04102 9.08263L16.3718 9.08263L11.9856 13.806C11.7805 14.0272 11.6818 14.3124 11.7113 14.5989C11.7407 14.8853 11.8959 15.1496 12.1427 15.3335C12.3894 15.5173 12.7076 15.6058 13.0271 15.5794C13.3466 15.553 13.6413 15.4139 13.8464 15.1926L19.8881 8.69263C19.9287 8.64093 19.9651 8.58661 19.9968 8.53013C19.9968 8.47596 19.9968 8.44346 20.0814 8.38929C20.1362 8.26508 20.1649 8.13286 20.166 7.99929C20.1649 7.86573 20.1362 7.73351 20.0814 7.60929C20.0814 7.55513 20.0814 7.52263 19.9968 7.46846C19.9651 7.41198 19.9287 7.35766 19.8881 7.30596L13.8464 0.805961C13.7328 0.683672 13.5906 0.585326 13.4297 0.51792C13.2689 0.450514 13.0935 0.415702 12.916 0.415961C12.6337 0.415466 12.3601 0.503622 12.1427 0.665127C12.0203 0.756072 11.9192 0.867765 11.8451 0.993808C11.7709 1.11985 11.7253 1.25777 11.7107 1.39966C11.6961 1.54155 11.7128 1.68463 11.76 1.8207C11.8072 1.95677 11.8839 2.08316 11.9856 2.19263L16.3718 6.91596L2.04102 6.91596C1.72055 6.91596 1.4132 7.0301 1.18659 7.23326C0.959987 7.43643 0.832682 7.71198 0.832682 7.99929C0.832682 8.28661 0.959987 8.56216 1.18659 8.76533C1.4132 8.96849 1.72055 9.08263 2.04102 9.08263Z" fill="black"/>
</svg>
