<svg width="21" height="16" viewBox="0 0 21 16" fill="none" xmlns="http://www.w3.org/2000/svg">
<path d="M18.958 6.91737H4.62717L9.01342 2.19404C9.21853 1.9728 9.3172 1.68758 9.28774 1.40112C9.25828 1.11466 9.1031 0.850422 8.85634 0.666539C8.60958 0.482655 8.29145 0.394188 7.97193 0.4206C7.65242 0.447011 7.35769 0.586138 7.15259 0.807372L1.11092 7.30737C1.07028 7.35907 1.03393 7.41339 1.00217 7.46987C1.00217 7.52404 1.00217 7.55654 0.917591 7.61071C0.862822 7.73492 0.834145 7.86714 0.833008 8.00071C0.834145 8.13427 0.862822 8.26649 0.917591 8.39071C0.917591 8.44487 0.917591 8.47737 1.00217 8.53154C1.03393 8.58802 1.07028 8.64234 1.11092 8.69404L7.15259 15.194C7.2662 15.3163 7.40847 15.4147 7.56928 15.4821C7.73009 15.5495 7.90549 15.5843 8.08301 15.584C8.36534 15.5845 8.63895 15.4964 8.85634 15.3349C8.9787 15.2439 9.07983 15.1322 9.15397 15.0062C9.2281 14.8801 9.27377 14.7422 9.28836 14.6003C9.30296 14.4585 9.28618 14.3154 9.239 14.1793C9.19182 14.0432 9.11517 13.9168 9.01342 13.8074L4.62717 9.08404H18.958C19.2785 9.08404 19.5858 8.9699 19.8124 8.76674C20.039 8.56357 20.1663 8.28802 20.1663 8.00071C20.1663 7.71339 20.039 7.43784 19.8124 7.23467C19.5858 7.03151 19.2785 6.91737 18.958 6.91737Z" fill="black"/>
</svg>
