<svg width="28" height="32" viewBox="0 0 28 32" fill="none" xmlns="http://www.w3.org/2000/svg">
<path d="M5.88711 22.9904C4.38566 22.9904 3.16445 22.4479 2.24871 21.3708C1.33297 20.2936 0.731993 18.6952 0.382033 16.3697C-0.13328 12.9425 0.378048 10.0538 1.82172 8.23626C2.67172 7.16579 3.78734 6.54689 5.04774 6.44728C6.12684 6.36095 7.73984 6.79857 9.29774 9.36915C10.2732 10.9788 11.015 13.1171 11.3331 15.2355C11.7176 17.7928 11.4314 19.6754 10.4579 20.9896C9.68488 22.0335 8.49621 22.6803 6.92438 22.9154C6.58093 22.9658 6.23424 22.9909 5.88711 22.9904ZM8.48824 31.9373C7.61102 31.9373 6.72184 31.6564 5.92098 31.1165C4.76533 30.3334 3.96541 29.1259 3.69504 27.7564C3.50578 26.7829 3.61934 26.0092 4.04168 25.3897C4.72766 24.3836 5.95883 24.1572 7.26172 23.9168C7.39918 23.8915 7.53863 23.8663 7.68008 23.8391C7.98024 23.782 8.28703 23.7063 8.58453 23.6326C9.69883 23.3576 10.8516 23.0727 11.8032 23.7488C12.4401 24.2003 12.7993 24.968 12.9069 26.0942C13.0291 27.3938 12.7502 28.6907 12.1213 29.7466C11.4446 30.8828 10.43 31.6338 9.26586 31.8623C9.00968 31.9123 8.74926 31.9374 8.48824 31.9373ZM22.1128 16.6154C21.766 16.6142 21.4198 16.5876 21.0769 16.5357C19.5057 16.3033 18.317 15.6558 17.5441 14.6099C16.5705 13.2958 16.2823 11.4138 16.6688 8.85583C16.9869 6.73548 17.7267 4.59919 18.6975 2.99548C20.2475 0.434191 21.8625 -0.0100665 22.9475 0.0682928C24.2039 0.159933 25.3176 0.770207 26.1689 1.8347C27.6225 3.65224 28.1378 6.54954 27.6205 9.99204C27.2706 12.3163 26.6776 13.9067 25.7539 14.9931C24.8302 16.0795 23.6143 16.6154 22.1128 16.6154ZM19.5117 25.5623C19.2513 25.5623 18.9916 25.5372 18.7361 25.4873C17.57 25.2588 16.5553 24.5078 15.8806 23.3716C15.2517 22.3157 14.9728 21.0188 15.095 19.7192C15.2012 18.5903 15.5598 17.8253 16.1987 17.3731C17.1503 16.6977 18.3031 16.982 19.4174 17.2576C19.7149 17.3306 20.0217 17.4063 20.3218 17.4641L20.7395 17.5418C22.0431 17.7815 23.2743 18.0066 23.9602 19.014C24.3826 19.6336 24.4961 20.4085 24.3069 21.3807C24.0367 22.7505 23.2368 23.9583 22.0809 24.7415C21.2754 25.2821 20.3862 25.5623 19.5117 25.5623Z" fill="#067F81"/>
</svg>
