<svg width="20" height="32" viewBox="0 0 20 32" fill="none" xmlns="http://www.w3.org/2000/svg">
<path d="M13.0004 6C14.6566 6 16.0004 4.65625 16.0004 3C16.0004 1.34375 14.6566 0 13.0004 0C11.3441 0 10.0004 1.34375 10.0004 3C10.0004 4.65625 11.3441 6 13.0004 6ZM18.9066 15.3188L17.4504 14.5813L16.8441 12.7437C15.9254 9.95625 13.3629 8.00625 10.4566 8C8.20664 7.99375 6.96289 8.63125 4.62539 9.575C3.27539 10.1187 2.16914 11.15 1.51914 12.4625L1.10039 13.3125C0.612891 14.3 1.00664 15.5 1.98789 15.9937C2.96289 16.4875 4.15039 16.0875 4.64414 15.1L5.06289 14.25C5.28164 13.8125 5.64414 13.4688 6.09414 13.2875L7.76914 12.6125L6.81914 16.4062C6.49414 17.7062 6.84414 19.0875 7.75039 20.0812L11.4941 24.1688C11.9441 24.6625 12.2629 25.2562 12.4254 25.9L13.5691 30.4813C13.8379 31.55 14.9254 32.2063 15.9941 31.9375C17.0629 31.6687 17.7191 30.5813 17.4504 29.5125L16.0629 23.95C15.9004 23.3063 15.5816 22.7063 15.1316 22.2188L12.2879 19.1125L13.3629 14.8188L13.7066 15.85C14.0379 16.8563 14.7504 17.6875 15.6879 18.1625L17.1441 18.9C18.1191 19.3937 19.3066 18.9938 19.8004 18.0063C20.2816 17.025 19.8879 15.8125 18.9066 15.3188V15.3188ZM4.60039 24.1125C4.40039 24.6187 4.10039 25.075 3.71289 25.4562L0.587891 28.5875C-0.193359 29.3687 -0.193359 30.6375 0.587891 31.4188C1.36914 32.2 2.63164 32.2 3.41289 31.4188L7.12539 27.7062C7.50664 27.325 7.80664 26.8687 8.01289 26.3625L8.85664 24.25C5.40039 20.4813 6.43789 21.6375 5.89414 20.8937L4.60039 24.1125V24.1125Z" fill="#067F81"/>
</svg>
